<svg xmlns="http://www.w3.org/2000/svg" version="1.1" xmlns:xlink="http://www.w3.org/1999/xlink" xmlns:svgjs="http://svgjs.dev/svgjs" width="2000" height="2102" viewBox="0 0 2000 2102"><g transform="matrix(1,0,0,1,0.11282899402124258,0.8525836416256425)"><svg viewBox="0 0 235 247" data-background-color="#ffffff" preserveAspectRatio="xMidYMid meet" height="2102" width="2000" xmlns="http://www.w3.org/2000/svg" xmlns:xlink="http://www.w3.org/1999/xlink"><g id="tight-bounds" transform="matrix(1,0,0,1,-0.013054605409905662,-0.09997365579206985)"><svg viewBox="0 0 235.02621087599545 247.2" height="247.2" width="235.02621087599545"><g><svg viewBox="0 0 235.02621087599545 247.2" height="247.2" width="235.02621087599545"><g><svg viewBox="0 0 235.02621087599545 247.2" height="247.2" width="235.02621087599545"><g id="textblocktransform"><svg viewBox="0 0 235.02621087599545 247.2" height="247.2" width="235.02621087599545" id="textblock"><g><svg viewBox="0 0 235.02621087599545 247.2" height="247.2" width="235.02621087599545"><path d="M234.476 53.02C233.371 27.36 230.222 20.227 230.222 20.227 220.554-6.202 208.489-0.506 197.649 3.292 178.512 3.446 159.453 9.091 140.36 12.119 100.285 12.581 59.867 4.986 19.991 23.717 16.245 29.464-3.886 24.846 0.666 56.304 1.86 69.39 6.213 83.913 6.08 95.922 6.677 98.026 7.506 93.202 7.859 96.23 9.097 104.39 11.119 100.541 12.776 105.365 10.467 118.246 12.124 128.971 13.704 140.21 10.92 143.135 7.351 141.749 5.749 151.449 5.583 158.479 4.688 157.145 3.705 156.837 2.987 156.632 1.539 157.402 1.782 159.608 2.611 167.152-0.947 171.514 1.285 178.904-0.251 186.91 2.346 193.838 1.992 202.511 1.948 204.255 2.191 205.744 2.578 206.154 4.29 208.361 1.793 212.672 2.058 217.342 19.626 249.262 38.686 227.195 56.685 241.872 61.359 231.608 57.845 245.516 59.713 243.36 61.171 240.846 62.232 251.263 63.878 245.362 64.132 243.668 63.745 239.665 64.652 240.435 65.127 240.846 65.546 240.743 65.613 238.382 65.712 234.841 64.839 237.048 64.607 235.201 67.115 225.861 66.497 248.081 68.85 247.158 68.74 244.438 68.055 240.538 69.458 241.051 70.85 237.151 70.894 233.918 72.132 242.693 72.176 244.592 72.397 245.926 72.75 246.85 76.618 237.305 80.463 250.237 84.518 245.926 87.004 241.205 89.39 248.492 91.91 246.696 92.794 245.259 93.689 242.693 94.539 247.004 104.959 247.928 116.063 244.079 125.941 247.158 152.337 241.41 180.545 249.518 208.378 241.923 214.941 238.998 221.758 234.841 228.156 231.506 228.156 231.506 233.338 222.371 233.338 181.316S234.443 145.393 234.609 112.703C234.774 80.013 235.548 78.679 234.443 53.02Z" opacity="1" fill="#ed2647" data-fill-palette-color="tertiary"></path><g transform="matrix(1,0,0,1,55.76832,26.230666666666668)"><svg width="123.48957087599544" viewBox="1.45 -36.23 23.23 36.629999999999995" height="194.73866666666666" data-palette-color="#ffffff"><path d="M23.88-32.52L22.7-30.23Q22.48-29.85 22.23-29.66 21.98-29.48 21.58-29.48L21.58-29.48Q21.15-29.48 20.59-29.9 20.03-30.33 19.16-30.84 18.3-31.35 17.09-31.78 15.88-32.2 14.15-32.2L14.15-32.2Q12.53-32.2 11.28-31.76 10.03-31.33 9.19-30.58 8.35-29.83 7.93-28.81 7.5-27.8 7.5-26.63L7.5-26.63Q7.5-25.13 8.24-24.14 8.97-23.15 10.19-22.45 11.4-21.75 12.94-21.24 14.48-20.73 16.09-20.18 17.7-19.63 19.24-18.94 20.78-18.25 21.99-17.2 23.2-16.15 23.94-14.63 24.68-13.1 24.68-10.88L24.68-10.88Q24.68-8.53 23.88-6.46 23.08-4.4 21.54-2.88 20-1.35 17.76-0.48 15.53 0.4 12.68 0.4L12.68 0.4Q9.2 0.4 6.34-0.86 3.48-2.13 1.45-4.28L1.45-4.28 2.85-6.58Q3.05-6.85 3.34-7.04 3.63-7.23 3.98-7.23L3.98-7.23Q4.5-7.23 5.18-6.66 5.85-6.1 6.86-5.43 7.88-4.75 9.31-4.19 10.75-3.63 12.83-3.63L12.83-3.63Q14.55-3.63 15.9-4.1 17.25-4.58 18.19-5.44 19.13-6.3 19.63-7.5 20.13-8.7 20.13-10.18L20.13-10.18Q20.13-11.8 19.39-12.84 18.65-13.88 17.45-14.58 16.25-15.28 14.71-15.76 13.18-16.25 11.56-16.76 9.95-17.28 8.41-17.95 6.88-18.63 5.68-19.7 4.48-20.78 3.74-22.39 3-24 3-26.38L3-26.38Q3-28.28 3.74-30.05 4.48-31.83 5.88-33.2 7.28-34.58 9.34-35.4 11.4-36.23 14.08-36.23L14.08-36.23Q17.07-36.23 19.55-35.27 22.03-34.33 23.88-32.52L23.88-32.52Z" opacity="1" transform="matrix(1,0,0,1,0,0)" fill="#ffffff" class="wordmark-text-0" data-fill-palette-color="quaternary" id="text-0"></path></svg></g></svg></g></svg></g></svg></g><g></g></svg></g><defs></defs></svg><rect width="308.76" height="304.93" fill="none" stroke="none" visibility="hidden"></rect></g></svg></g></svg>